# AST/ASF file generated using VICON BodyLanguage
# -----------------------------------------------
:version 1.10
:name VICON
:units
  mass 1.0
  length 0.45
  angle deg
:documentation
   .ast/.asf automatically generated from VICON data using
   VICON BodyBuilder and BodyLanguage model FoxedUp or BRILLIANT.MOD
:root
   order TX TY TZ RX RY RZ
   axis XYZ
   position 0 0 0  
   orientation 0 0 0 
:bonedata
  begin
     id 1 
     name lhipjoint
     direction 0.722297 -0.617336 0.311742 
     length 2.6635 
     axis 0 0 0  XYZ
  end
  begin
     id 2 
     name lfemur
     direction 0.34202 -0.939693 0  
     length 7.39349  
     axis 0 0 20  XYZ
    dof rx ry rz
    limits (-160.0 20.0)
           (-70.0 70.0)
           (-60.0 70.0)
  end
  begin
     id 3 
     name ltibia
     direction 0.34202 -0.939693 0   
     length 7.36294   
     axis 0 0 20   XYZ
    dof rx
    limits (-10.0 170.0)
  end
  begin
     id 4 
     name lfoot
     direction 0.104879 -0.288152 0.951824   
     length 2.16981   
     axis -90 7.62852e-016 20   XYZ
    dof rx rz
    limits (-45.0 90.0)
           (-70.0 20.0)
  end
  begin
     id 5 
     name ltoes
     direction 1.53586e-011 -4.21895e-011 1   
     length 1.08218   
     axis -90 7.62852e-016 20   XYZ
    dof rx
    limits (-90.0 20.0)
  end
  begin
     id 6 
     name rhipjoint
     direction -0.75102 -0.589393 0.297631   
     length 2.78977  
     axis 0 0 0  XYZ 
  end
  begin
     id 7 
     name rfemur
     direction -0.34202 -0.939693 0   
     length 7.46076   
     axis 0 0 -20   XYZ
    dof rx ry rz
    limits (-160.0 20.0)
           (-70.0 70.0)
           (-70.0 60.0)
  end
  begin
     id 8 
     name rtibia
     direction -0.34202 -0.939693 0   
     length 7.31726   
     axis 0 0 -20   XYZ
    dof rx
    limits (-10.0 170.0)
 end
 begin
     id 9 
     name rfoot
     direction -0.107991 -0.296704 0.948844   
     length 2.09388  
     axis -90 -7.62852e-016 -20   XYZ
    dof rx rz
    limits (-45.0 90.0)
           (-20.0 70.0)
  end
  begin
     id 10 
     name rtoes
     direction -1.53559e-011 -4.21911e-011 1   
     length 1.04433   
     axis -90 -7.62852e-016 -20   XYZ
    dof rx
    limits (-90.0 20.0)
  end
  begin
     id 11 
     name lowerback
     direction 0.0165164 0.98272 0.184358   
     length 1.71896   
     axis 0 0 0   XYZ
    dof rx ry rz
    limits (-20.0 45.0)
           (-30.0 30.0)
           (-30.0 30.0)
  end
  begin
     id 12 
     name upperback
     direction -0.00887249 0.992297 0.123566   
     length 1.71504   
     axis 0 0 0   XYZ
    dof rx ry rz
    limits (-20.0 45.0)
           (-30.0 30.0)
           (-30.0 30.0)
  end
  begin
     id 13 
     name thorax
     direction -0.0157026 0.998908 0.0440032   
     length 1.77022   
     axis 0 0 0   XYZ
    dof rx ry rz
    limits (-20.0 45.0)
           (-30.0 30.0)
           (-30.0 30.0)
  end
  begin
     id 14 
     name lowerneck
     direction -0.0238856 0.998137 0.0561411   
     length 1.89341   
     axis 0 0 0   XYZ
    dof rx ry rz
    limits (-20.0 45.0)
           (-30.0 30.0)
           (-30.0 30.0)
  end
  begin
     id 15 
     name upperneck
     direction 0.0276574 0.952253 -0.304056   
     length 1.86999   
     axis 0 0 0   XYZ
    dof rx ry rz
    limits (-20.0 45.0)
           (-30.0 30.0)
           (-30.0 30.0)
  end
  begin
     id 16
     name head
     direction 0.00800083 0.994258 -0.106712  
     length 1.91492  
     axis 0 0 0   XYZ
    dof rx ry rz
    limits (-20.0 45.0)
           (-30.0 30.0)
           (-30.0 30.0)
  end
  begin
     id 17 
     name lclavicle
     direction 0.97203 0.225407 0.06595  
     length 3.34889  
     axis 0 0 0   XYZ
    dof ry rz
    limits (-20.0 10.0)
           (0.0 20.0)
  end
  begin
     id 18 
     name lhumerus
     direction 1 -4.48973e-011 2.20267e-027   
     length 4.85645   
     axis 180 -30 -90   XYZ
    dof rx ry rz
    limits (-60.0 90.0)
           (-90.0 90.0)
           (-90.0 90.0)
  end
  begin
     id 19
     name lradius
     direction 1 -4.4897e-011 4.60472e-027   
     length 2.79874   
     axis 180 -30 -90   XYZ
    dof rx
    limits (-10.0 170.0)
  end
  begin
     id 20
     name lwrist
     direction 1 -4.48952e-011 1.14928e-026   
     length 1.39937   
     axis -6.29373e-015 90 90   XYZ
    dof ry
    limits (-180.0 0.0)
 end
  begin
     id 21 
     name lhand
     direction 1 -4.48967e-011 2.29886e-026   
     length 0.573398   
     axis -1.46689e-014 90 90   XYZ
    dof rx rz
    limits (-90.0 90.0)
           (-45.0 45.0)
  end
  begin
     id 22 
     name lfingers
     direction 1 -4.48955e-011 4.59726e-026   
     length 0.462289   
     axis -2.93383e-014 90 90   XYZ
    dof rx
    limits (0.0 90.0)
  end
  begin
     id 23
     name lthumb
     direction 0.707107 -6.34866e-011 0.707107   
     length 0.663757   
     axis -90 45 5.69224e-014   XYZ
    dof rx rz
    limits (-45.0 45.0)
           (-45.0 45.0)
  end
  begin
     id 24 
     name rclavicle
     direction -0.981571 0.157346 0.108443   
     length 3.35257  
     axis 0 0 0   XYZ 
    dof ry rz
    limits (-10.0 20.0)
           (-20.0 0.0)
  end
  begin
     id 25 
     name rhumerus
     direction -1 -4.48967e-011 8.58308e-029  
     length 4.67018   
     axis 180 30 90   XYZ
    dof rx ry rz
    limits (-90.0 60.0)
           (-90.0 90.0)
           (-90.0 90.0)
  end
  begin
     id 26 
     name rradius
     direction -1 -4.48958e-011 4.52548e-027   
     length 2.65534   
     axis 180 30 90   XYZ
    dof rx
    limits (-10.0 170.0)
  end
  begin
     id 27 
     name rwrist
     direction -1 -4.48977e-011 1.14952e-026   
     length 1.32767   
     axis -6.29373e-015 -90 -90   XYZ
    dof ry
    limits (-180.0 0.0)
  end
  begin
     id 28
     name rhand
     direction -1 -4.48924e-011 2.29804e-026   
     length 0.594069   
     axis -1.46689e-014 -90 -90   XYZ
    dof rx rz
    limits (-90.0 90.0)
           (-45.0 45.0)
  end
  begin
     id 29
     name rfingers
     direction -1 -4.48998e-011 4.59888e-026   
     length 0.478954   
     axis -2.93383e-014 -90 -90   XYZ
    dof rx
    limits (0.0 90.0)
  end
  begin
     id 30
     name rthumb
     direction -0.707107 -6.34933e-011 0.707107   
     length 0.687685   
     axis -90 -45 -5.69224e-014   XYZ
    dof rx rz
    limits (-45.0 45.0)
           (-45.0 45.0)
  end
:hierarchy
  begin
    root lhipjoint rhipjoint lowerback
    lhipjoint lfemur
    lfemur ltibia
    ltibia lfoot
    lfoot ltoes
    rhipjoint rfemur
    rfemur rtibia
    rtibia rfoot
    rfoot rtoes
    lowerback upperback
    upperback thorax
    thorax lowerneck lclavicle rclavicle
    lowerneck upperneck
    upperneck head
    lclavicle lhumerus
    lhumerus lradius
    lradius lwrist
    lwrist lhand lthumb
    lhand lfingers
    rclavicle rhumerus
    rhumerus rradius
    rradius rwrist
    rwrist rhand rthumb
    rhand rfingers
  end

#!OML:ASF E:\pregnant2\Project 1\Capture day 1\Session 1\pregnant2.ASF
:FULLY-SPECIFIED
:DEGREES
553
root 5.5965 22.6139 -13.6652 -153.373 7.62191 178.995
lowerback -1.38129 3.8164 6.35039
upperback -12.5804 6.7847 -8.57132
thorax -11.2706 2.95612 -13.8799
lowerneck -10.1046 2.47325 1.11154
upperneck 49.5911 -13.0054 6.14695
head 23.8771 -7.26055 -1.02225
rclavicle -4.78077e-014 1.27222e-013
rhumerus -61.8195 -17.0319 -77.4653
rradius 44.7682
rwrist 7.40993
rhand -10.6857 -15.6263
rfingers 7.12502
rthumb 15.3233 -45.0386
lclavicle -4.78077e-014 1.27222e-013
lhumerus -38.6448 -29.6429 82.9749
lradius 46.4911
lwrist 6.64827
lhand -12.1593 29.4769
lfingers 7.12502
lthumb 13.9035 58.9921
rfemur -85.3373 1.62448 21.446
rtibia 66.662
rfoot -12.8294 0.144799
rtoes -9.82185
lfemur -39.4298 -9.42164 -24.631
ltibia 33.1898
lfoot -14.7027 18.6075
ltoes -11.4453
554
root 5.61077 22.6047 -13.7297 -153.345 7.6004 178.956
lowerback -1.19086 3.83513 6.40052
upperback -12.6741 6.84139 -8.6574
thorax -11.4728 2.96067 -14.0625
lowerneck -10.0115 2.45195 1.12784
upperneck 49.5929 -13.1322 6.24024
head 23.8763 -7.30705 -1.00061
rclavicle -1.41137e-014 -2.22639e-014
rhumerus -62.1053 -17.2737 -77.3026
rradius 44.6738
rwrist 7.43739
rhand -10.69 -15.5671
rfingers 7.12502
rthumb 15.3191 -44.9797
lclavicle -1.41137e-014 -2.22639e-014
lhumerus -38.6936 -29.864 82.9561
lradius 46.5139
lwrist 6.62544
lhand -12.1927 29.4653
lfingers 7.12502
lthumb 13.8713 58.9827
rfemur -85.1658 1.91756 20.9277
rtibia 65.6822
rfoot -12.3018 0.478371
rtoes -9.66479
lfemur -39.2762 -9.22029 -24.7644
ltibia 33.3006
lfoot -14.9718 18.4476
ltoes -11.5601
555
root 5.6277 22.5925 -13.7915 -153.464 7.63364 178.754
lowerback -0.867825 3.83953 6.26435
upperback -12.7111 6.85922 -8.78533
thorax -11.7081 2.9568 -14.196
lowerneck -9.96336 2.45216 1.28998
upperneck 49.656 -13.2106 6.18955
head 23.9062 -7.31535 -1.07938
rclavicle -1.20265e-014 8.74653e-014
rhumerus -62.3392 -17.5274 -77.1598
rradius 44.6154
rwrist 7.50742
rhand -10.5854 -15.5649
rfingers 7.12502
rthumb 15.4199 -44.9697
lclavicle -1.20265e-014 8.74653e-014
lhumerus -38.7228 -30.0579 82.9191
lradius 46.5515
lwrist 6.59571
lhand -12.1133 29.5038
lfingers 7.12502
lthumb 13.9478 59.016
rfemur -84.9236 2.17685 20.2567
rtibia 64.838
rfoot -11.8316 0.737941
rtoes -9.83649
lfemur -38.9818 -9.04039 -25.0816
ltibia 33.4063
lfoot -15.2588 18.3233
ltoes -12.2231
556
root 5.63994 22.5973 -13.8847 -153.23 7.56074 178.967
lowerback -1.47478 3.97502 6.64219
upperback -12.6881 7.05305 -8.84519
thorax -11.2204 3.06519 -14.3912
lowerneck -10.1953 2.27674 1.2109
upperneck 49.5913 -13.4895 6.26866
head 23.9926 -7.39821 -1.09198
rclavicle 1.95306e-014 -5.88403e-014
rhumerus -62.4025 -17.7542 -77.0711
rradius 44.5217
rwrist 7.5012
rhand -10.5627 -15.5743
rfingers 7.12502
rthumb 15.4417 -44.9775
lclavicle 1.95306e-014 -5.88403e-014
lhumerus -38.6383 -30.2815 82.8903
lradius 46.5523
lwrist 6.60378
lhand -12.2131 29.495
lfingers 7.12502
lthumb 13.8516 59.0137
rfemur -84.7416 2.41213 20.1468
rtibia 64.0896
rfoot -11.155 1.18012
rtoes -9.62519
lfemur -38.8718 -8.86766 -24.9272
ltibia 33.5132
lfoot -15.5282 18.2543
ltoes -12.3525
557
root 5.66038 22.5849 -13.9514 -153.194 7.59693 178.865
lowerback -1.34523 4.01149 6.5661
upperback -12.7495 7.12117 -8.95166
thorax -11.3487 3.09486 -14.5082
lowerneck -10.2951 2.26134 1.2798
upperneck 49.6839 -13.6173 6.25887
head 24.1432 -7.42846 -1.15494
rclavicle -1.99779e-014 3.18055e-015
rhumerus -62.58 -18.0227 -76.913
rradius 44.4313
rwrist 7.53486
rhand -10.4853 -15.6159
rfingers 7.12502
rthumb 15.5163 -45.0134
lclavicle -1.99779e-014 3.18055e-015
lhumerus -38.704 -30.5303 82.9059
lradius 46.6042
lwrist 6.64514
lhand -12.1781 29.5579
lfingers 7.12502
lthumb 13.8854 59.0743
rfemur -84.6016 2.75383 19.5777
rtibia 63.4666
rfoot -10.7488 1.41848
rtoes -9.31526
lfemur -38.7395 -8.66054 -25.099
ltibia 33.6161
lfoot -15.7668 18.1093
ltoes -13.0762
558
root 5.67865 22.58 -14.0238 -153.193 7.54015 178.796
lowerback -1.14415 4.00394 6.57459
upperback -12.8973 7.15819 -9.04033
thorax -11.6318 3.08979 -14.686
lowerneck -10.0376 2.28657 1.2794
upperneck 49.6513 -13.7176 6.46682
head 24.0655 -7.47748 -1.05173
rclavicle 9.60875e-014 -1.59028e-014
rhumerus -62.9682 -18.2732 -76.7073
rradius 44.2894
rwrist 7.69076
rhand -10.4484 -15.5631
rfingers 7.12502
rthumb 15.5518 -44.9577
lclavicle 9.60875e-014 -1.59028e-014
lhumerus -39.0373 -30.7604 82.9859
lradius 46.6603
lwrist 6.66917
lhand -12.2077 29.5827
lfingers 7.12502
lthumb 13.8568 59.1011
rfemur -84.3453 2.96895 19.1568
rtibia 62.9619
rfoot -10.2351 1.67543
rtoes -10.2638
lfemur -38.5043 -8.54546 -25.2097
ltibia 33.6922
lfoot -16.0235 17.9571
ltoes -13.1422
559
root 5.6951 22.5764 -14.101 -153.12 7.4162 178.838
lowerback -1.26977 4.05521 6.7915
upperback -12.8923 7.24226 -9.12691
thorax -11.4994 3.1208 -14.8997
lowerneck -10.1655 2.26939 1.14544
upperneck 49.6813 -13.8749 6.66123
head 24.2405 -7.5376 -0.96996
rclavicle 3.92351e-014 -1.22451e-013
rhumerus -63.1034 -18.5228 -76.5926
rradius 44.2216
rwrist 7.75771
rhand -10.4452 -15.4993
rfingers 7.12502
rthumb 15.5549 -44.8938
lclavicle 3.92351e-014 -1.22451e-013
lhumerus -39.014 -30.9962 82.9688
lradius 46.6501
lwrist 6.71665
lhand -12.2494 29.5587
lfingers 7.12502
lthumb 13.8167 59.0798
rfemur -84.0706 3.13261 18.9278
rtibia 62.5596
rfoot -9.35998 1.95936
rtoes -9.94022
lfemur -38.3213 -8.45152 -25.1931
ltibia 33.7976
lfoot -16.25 17.8885
ltoes -13.5504
560
root 5.71724 22.5688 -14.1801 -153.043 7.48431 178.682
lowerback -1.37561 4.11854 6.63327
upperback -12.9416 7.34007 -9.24168
thorax -11.4654 3.19476 -14.9366
lowerneck -10.0417 2.18334 1.34782
upperneck 49.6019 -13.8824 6.52468
head 24.0408 -7.50461 -1.06217
rclavicle -9.44227e-015 -1.74931e-014
rhumerus -63.2887 -18.7659 -76.4164
rradius 44.1295
rwrist 7.83363
rhand -10.3335 -15.6694
rfingers 7.12502
rthumb 15.6625 -45.0555
lclavicle -9.44227e-015 -1.74931e-014
lhumerus -39.1687 -31.1632 83.0629
lradius 46.6871
lwrist 6.67839
lhand -12.3057 29.5269
lfingers 7.12502
lthumb 13.7624 59.0518
rfemur -83.937 3.42176 18.4025
rtibia 62.2605
rfoot -8.60365 2.15556
rtoes -9.75095
lfemur -38.1525 -8.35066 -25.3899
ltibia 33.869
lfoot -16.4843 17.8373
ltoes -13.7232
561
root 5.73407 22.5665 -14.2507 -153.045 7.21103 178.79
lowerback -1.24074 4.12519 6.96904
upperback -12.9679 7.37901 -9.27846
thorax -11.5396 3.16756 -15.2129
lowerneck -10.0807 2.16039 1.5001
upperneck 49.6483 -13.9407 6.44998
head 24.0803 -7.49599 -1.14885
rclavicle 8.55271e-014 -7.95139e-014
rhumerus -63.4893 -19.0396 -76.2229
rradius 44.0003
rwrist 7.91104
rhand -10.3823 -15.5304
rfingers 7.12502
rthumb 15.6155 -44.9201
lclavicle 8.55271e-014 -7.95139e-014
lhumerus -39.2826 -31.3674 83.1163
lradius 46.6815
lwrist 6.70294
lhand -12.2981 29.5087
lfingers 7.12502
lthumb 13.7698 59.033
rfemur -83.5388 3.48463 18.3917
rtibia 62.0327
rfoot -8.12692 2.36563
rtoes -9.93406
lfemur -37.8982 -8.35157 -25.2408
ltibia 33.952
lfoot -16.6778 17.741
ltoes -14.0074
562
root 5.75468 22.5641 -14.338 -152.931 7.12112 178.798
lowerback -1.44874 4.17724 7.08331
upperback -13.028 7.47607 -9.36449
thorax -11.4388 3.22057 -15.3637
lowerneck -10.0853 2.13802 1.58192
upperneck 49.6892 -14.0467 6.4563
head 24.1337 -7.51939 -1.18956
rclavicle -2.9122e-014 3.65764e-014
rhumerus -63.7342 -19.2839 -76.0596
rradius 43.8367
rwrist 8.11144
rhand -10.5793 -15.2828
rfingers 7.12502
rthumb 15.4257 -44.6872
lclavicle -2.9122e-014 3.65764e-014
lhumerus -39.5362 -31.541 83.1921
lradius 46.711
lwrist 6.65898
lhand -12.2066 29.5216
lfingers 7.12502
lthumb 13.8579 59.0399
rfemur -83.2412 3.65084 18.2282
rtibia 61.8551
rfoot -7.63293 2.58599
rtoes -9.93003
lfemur -37.6973 -8.29622 -25.2313
ltibia 34.0082
lfoot -16.9442 17.6919
ltoes -14.3198
563
root 5.78135 22.5511 -14.4085 -152.952 7.16343 178.545
lowerback -1.13723 4.15892 6.8073
upperback -13.1819 7.49346 -9.492
thorax -11.821 3.22501 -15.4439
lowerneck -9.95295 2.14139 1.5957
upperneck 49.6971 -14.138 6.57108
head 24.1275 -7.55715 -1.14634
rclavicle 1.33434e-014 -1.09729e-013
rhumerus -64.1372 -19.5336 -75.8428
rradius 43.7443
rwrist 8.20753
rhand -10.5488 -15.4052
rfingers 7.12502
rthumb 15.4552 -44.8074
lclavicle 1.33434e-014 -1.09729e-013
lhumerus -39.9247 -31.7339 83.3517
lradius 46.7108
lwrist 6.64018
lhand -12.163 29.5471
lfingers 7.12502
lthumb 13.8999 59.0626
rfemur -82.9773 3.88466 17.7263
rtibia 61.7457
rfoot -7.09678 2.6691
rtoes -9.58161
lfemur -37.4817 -8.28169 -25.4786
ltibia 34.0923
lfoot -17.119 17.6569
ltoes -14.5791
564
root 5.80219 22.5557 -14.498 -152.819 6.92755 178.759
lowerback -1.29379 4.20983 7.19804
upperback -13.2706 7.60857 -9.52082
thorax -11.7652 3.25129 -15.7064
lowerneck -9.72307 2.25773 1.88828
upperneck 49.7938 -13.9886 6.44237
head 24.0558 -7.47604 -1.22827
rclavicle 7.50412e-015 1.59028e-015
rhumerus -64.4452 -19.8236 -75.6226
rradius 43.632
rwrist 8.315
rhand -10.602 -15.3766
rfingers 7.12502
rthumb 15.4039 -44.7827
lclavicle 7.50412e-015 1.59028e-015
lhumerus -40.223 -31.9388 83.4581
lradius 46.6927
lwrist 6.63805
lhand -12.1129 29.5453
lfingers 7.12502
lthumb 13.9482 59.0575
rfemur -82.5682 4.01043 17.8877
rtibia 61.6137
rfoot -6.7322 2.88228
rtoes -7.5339
lfemur -37.2499 -8.29995 -25.179
ltibia 34.1099
lfoot -17.3446 17.6332
ltoes -14.9663
565
root 5.826 22.5491 -14.5813 -152.671 6.89726 178.756
lowerback -1.40992 4.26241 7.28292
upperback -13.3856 7.72179 -9.62391
thorax -11.7821 3.30449 -15.8891
lowerneck -9.84772 2.05643 1.65252
upperneck 49.6488 -14.3844 6.74769
head 24.103 -7.62961 -1.10907
rclavicle 7.9986e-014 -9.85972e-014
rhumerus -64.7502 -20.1096 -75.4545
rradius 43.6057
rwrist 8.37197
rhand -10.5998 -15.419
rfingers 7.12502
rthumb 15.406 -44.8249
lclavicle 7.9986e-014 -9.85972e-014
lhumerus -40.5718 -32.0654 83.5482
lradius 46.7037
lwrist 6.55448
lhand -12.1024 29.5187
lfingers 7.12502
lthumb 13.9584 59.0301
rfemur -82.2723 4.16892 17.8926
rtibia 61.6141
rfoot -6.66607 3.2021
rtoes -4.09567
lfemur -37.0818 -8.28318 -25.1496
ltibia 34.1274
lfoot -17.4908 17.6271
ltoes -15.1495
566
root 5.85387 22.5493 -14.667 -152.607 6.78095 178.604
lowerback -1.40209 4.2573 7.1587
upperback -13.4771 7.74597 -9.7081
thorax -11.8936 3.32647 -15.9418
lowerneck -9.95673 2.07637 1.88817
upperneck 49.8306 -14.3742 6.49553
head 24.2547 -7.59369 -1.3078
rclavicle 1.88845e-014 -1.43125e-014
rhumerus -65.0289 -20.3302 -75.2002
rradius 43.3144
rwrist 8.41273
rhand -10.7708 -15.2158
rfingers 7.12502
rthumb 15.2412 -44.6343
lclavicle 1.88845e-014 -1.43125e-014
lhumerus -41.0085 -32.2027 83.76
lradius 46.728
lwrist 6.62166
lhand -12.2289 29.4434
lfingers 7.12502
lthumb 13.8364 58.9632
rfemur -81.9754 4.20293 17.7958
rtibia 61.6742
rfoot -6.55227 3.43775
rtoes -1.13801
lfemur -36.801 -8.36729 -25.217
ltibia 34.0425
lfoot -17.5595 17.5478
ltoes -15.4837
567
root 5.87875 22.5531 -14.7495 -152.444 6.64358 178.76
lowerback -1.49079 4.31683 7.45573
upperback -13.5748 7.87228 -9.77256
thorax -11.8887 3.36165 -16.2062
lowerneck -9.87499 2.02141 1.75534
upperneck 49.6727 -14.4762 6.7918
head 24.155 -7.63058 -1.12675
rclavicle 7.44946e-014 -1.43125e-014
rhumerus -65.3354 -20.644 -75.0511
rradius 43.3793
rwrist 8.48445
rhand -10.8195 -15.2992
rfingers 7.12502
rthumb 15.1944 -44.7213
lclavicle 7.44946e-014 -1.43125e-014
lhumerus -41.2569 -32.3364 83.811
lradius 46.6563
lwrist 6.5271
lhand -12.1641 29.3755
lfingers 7.12502
lthumb 13.8989 58.891
rfemur -81.7755 4.20978 18.2377
rtibia 61.9188
rfoot -6.86782 3.09997
rtoes -1.58872
lfemur -36.5777 -8.41226 -24.946
ltibia 33.9388
lfoot -17.6246 17.5427
ltoes -15.9031
